<svg xmlns="http://www.w3.org/2000/svg" viewBox="0 0 1000 510"><path d="M395.971,497.381L396.159,498.443L396.291,499.364L392.477,499.086L388.706,499.206L386.027,498.523L385.968,498.443L384.566,497.832L388.542,497.913L392.435,498.117L393.154,497.257L393.597,496.51ZM220.026,496.228L217.145,496.521L213.573,495.766L211.274,495L210.994,494.871L208.875,494.27L208.66,493.447L212.524,493.796L215.379,494.486L217.96,495.257ZM419.178,493.056L421.785,494.013L423.126,495.342L423.748,496.268L424.315,497.349L421.935,498.008L419.379,498.534L416.389,499.016L413.004,499.416L408.847,499.296L406.155,498.614L405.945,497.761L409.34,497.185L410.461,496.478L411.081,495.554L411.476,494.745L412.173,493.968L412.902,493.056L413.81,493.056L416.267,492.575ZM272.088,482.455L274.876,482.835L276.723,482.41L276.451,483.259L275.276,483.873L272.494,483.682L269.8,482.835L269.433,482.029ZM263.867,482.41L267.665,483.352L266.466,483.259L263.809,483.022L260.575,482.36L261.429,481.84ZM310.986,478.629L313.331,478.966L315.209,478.679L317.342,480.071L315.718,479.88L313.484,479.976L311.067,479.88L308.606,480.025L306.299,479.544L304.519,478.533L305.385,478.099L308.071,478.437ZM368.055,476.21L368.847,477.328L369.002,478.295L368.952,479.212L366.894,479.548L365.024,480.03L362.51,479.984L362.916,479.021L360.857,479.357L358.921,479.694L357.06,478.971L356.38,477.957L357.952,476.988L359.107,476.694L361.382,476.791L361.283,475.522L360.912,474.595L359.83,472.572L360.342,471.381L361.954,470.982L363.457,471.926L364.379,472.867L365.784,474.005L366.963,475.082ZM207.511,506.178L207.512,506.178L207.511,506.178L207.651,506.192L206.007,505.235L210.59,505.756L210.592,505.697L210.62,505.561L210.641,505.389L210.67,505.241L210.689,505.167L210.94,505.17L211.197,505.198L215.7,505.889L215.656,505.198L215.742,505.101L219.718,504.8L222.42,505.198L223.775,505.4L227.88,505.946L233.771,506.356L238.98,506.844L246.37,507.201L249.655,506.785L257.441,507.084L262.797,507.548L265.643,507.112L268.887,506.693L267.195,505.946L260.608,505.883L254.297,505.496L251.218,504.835L245.858,504.46L244.247,503.662L243.179,502.912L242.322,502.216L240.382,501.43L236.497,500.896L233.845,500.198L230.005,499.57L234.408,499.689L237.81,499.371L241.513,500.042L243.521,499.453L245.058,498.694L245.311,498.005L243.316,497.142L240.141,496.561L236.582,495.93L232.762,495.803L229.126,495.507L225.365,495.294L222.957,494.482L219.605,493.792L217.031,493.011L212.739,490.44L213.943,490.665L216.582,491.377L219.239,491.154L221.676,490.842L224.522,491.822L227.074,491.6L228.812,491.112L230.242,490.487L231.3,489.722L233.757,489.495L232.593,488.634L230.87,487.766L230.392,486.94L232.275,486.526L234.299,487.306L236.57,486.849L237.994,486.246L240.582,486.198L242.819,485.97L244.698,485.412L246.125,484.896L247.824,484.383L249.441,484.525L250.916,484.711L253.343,484.383L256.27,484.804L258.777,484.759L260.879,484.432L263.632,484.662L266.645,484.896L269.138,484.804L271.887,484.852L274.697,484.896L277.16,484.804L278.385,484.1L280.301,483.727L283.129,484.242L284.965,483.82L286.219,482.973L288.104,483.727L289.526,484.569L291.456,485.364L292.749,484.662L295.767,485.549L298.522,485.83L301.238,486.478L303.723,486.338L305.72,485.922L308.586,486.014L311.365,486.338L314.248,486.753L314.385,485.737L312.533,484.945L310.934,484.1L308.368,483.913L306.573,483.018L305.439,482.119L303.325,480.307L305.043,480.642L307.638,480.786L309.974,480.642L312.496,481.025L314.966,481.741L316.424,482.594L319.075,482.737L321.256,482.405L323.488,481.93L325.602,481.643L327.929,482.213L330.304,482.024L330.647,480.166L332.923,481.264L335.395,481.692L337.599,481.454L339.78,482.405L342.313,482.5L344.777,482.782L347.356,483.304L348.257,482.405L348.452,481.548L350.928,482.5L353.362,482.262L355.592,482.782L357.36,483.584L359.713,483.348L361.353,482.831L362.913,482.213L365.012,481.881L367.517,481.597L369.744,481.264L371.32,480.741L372.036,479.972L371.944,478.916L371.212,477.898L370.127,476.93L368.961,475.953L367.872,474.977L366.938,474.09L366.344,473.106L366.051,472.115L366.515,471.171L366.791,470.125L366.636,469.126L365.73,468.021L365.034,467.011L365.481,465.849L366.235,465.091L367.108,464.124L368.129,463.305L369.422,462.54L369.741,461.411L370.553,460.691L371.553,460.019L373.452,459.867L374.402,459.037L375.645,458.522L377.206,458.209L378.444,457.536L379.295,456.7L380.799,456.389L382.254,457.069L381.813,457.949L380.014,458.728L379.344,459.296L377.671,458.885L376.085,459.144L374.932,459.764L373.716,460.433L373.033,461.206L373.175,462.231L373.7,463.203L375.002,464.071L373.882,464.683L372.081,464.885L371.349,465.748L370.529,466.557L369.775,467.668L369.89,468.624L371.064,469.676L372.469,470.474L374.36,471.072L376.212,471.866L377.458,472.859L378.299,473.796L379.315,474.782L380.594,475.611L381.582,476.539L382.885,478.816L383.863,479.731L384.461,480.691L385.499,481.643L385.85,482.924L385.305,483.913L384.605,484.711L382.291,485.038L381.889,485.874L381.18,486.661L378.877,487.536L376.637,487.904L374.629,488.405L372.451,488.908L371.569,489.858L368.705,489.947L365.445,489.858L362.677,490.037L359.614,490.037L360.799,490.935L363.834,491.335L366.278,491.955L367.947,492.746L366.44,493.444L363.201,493.226L361.068,493.792L361.649,494.697L362.247,495.551L364.89,496.264L365.91,497.056L368.774,497.839L372.727,498.166L376.311,498.732L379.311,499.371L382.967,500.005L387.479,500.315L392.105,500.857L395.463,501.43L399.131,502.068L401.506,502.949L402.908,503.629L404.391,502.983L406.724,502.439L409.225,501.843L412.41,501.354L415.097,500.82L419.318,500.78L423.648,501.049L427.335,501.505L427.981,500.664L430.062,500.083L434.378,500.042L437.588,499.611L440.644,499.172L444.125,498.892L447.823,498.53L450.338,498.005L448.874,497.264L447.89,496.517L447.644,495.719L444.249,495.803L440.742,496.141L437.297,496.141L436.514,495.338L436.186,493.706L436.827,493.226L439.216,492.704L442.078,492.176L444.071,491.511L446.079,490.842L447.485,489.947L449.875,489.542L452.269,489.226L453.476,489.042L456.284,488.952L458.906,488.634L461.083,488.177L463.214,487.627L465.145,487.076L467.598,486.338L469.121,485.549L470.776,484.852L471.209,483.913L469.157,483.348L469.693,482.356L470.854,481.597L472.757,481.12L474.775,480.547L476.634,479.781L478.035,478.816L478.874,477.659L480.215,476.976L482.515,477.123L483.509,477.948L485.802,478.044L485.828,477.123L486.761,476.151L488.846,476.395L489.376,477.32L491.668,477.463L494.144,477.026L496.548,476.736L498.73,476.879L499.562,477.898L501.67,477.077L503.634,476.635L505.824,476.294L507.984,475.953L509.972,475.366L512.148,474.977L513.849,474.434L515.072,473.549L516.484,474.192L518.521,473.847L519.848,475.023L520.873,475.907L523.111,475.417L524.069,474.434L526.113,473.745L528.653,473.894L529.307,474.828L531.012,473.894L533.141,473.601L535.438,473.503L537.492,473.549L539.621,473.847L541.699,473.992L542.477,474.828L543.612,475.565L545.802,475.125L548.099,475.023L550.294,475.023L552.464,474.977L554.472,474.633L556.587,474.336L558.448,473.647L560.374,473.204L562.417,472.957L564.067,472.264L565.464,470.874L566.782,470.025L568.729,470.426L569.28,471.321L570.817,471.917L572.906,471.72L574.05,472.611L575.322,473.255L577.475,472.662L578.473,471.57L580.366,471.123L582.659,470.276L584.692,469.926L587.16,469.425L588.882,468.875L590.696,468.273L592.429,467.721L594.199,468.021L596.285,467.116L597.81,466.409L599.67,466.457L601.524,465.849L602.225,464.937L604.162,464.225L605.991,463.715L608.153,463.305L610.085,463.102L611.802,463.256L613.609,463.512L614.957,464.225L614.725,465.341L616.154,466.203L617.081,466.911L619.339,467.216L620.373,467.921L621.714,468.624L623.546,468.776L625.355,468.273L627.532,467.216L629.157,467.769L630.966,468.073L632.693,468.372L634.542,468.572L636.518,468.572L636.868,471.222L636.474,471.866L635.678,473.008L633.496,473.647L631.513,474.582L631.294,475.565L633.476,475.514L632.718,476.492L631.274,477.416L629.855,478.433L630.915,479.204L632.989,479.445L635.421,479.012L636.99,478.044L638.116,477.123L639.59,476.345L641.189,475.611L642.144,474.731L643.823,473.503L645.174,473.255L647.446,473.153L649.551,472.859L651.759,472.461L653.263,471.471L654.362,470.525L656.231,469.576L658.526,468.923L660.472,468.424L662.042,467.568L663.419,467.116L665.096,466.71L666.94,466.963L668.879,466.71L671.007,466.409L673.112,466.557L674.975,465.849L677.014,464.124L677.34,464.836L677.559,466.055L678.938,466.557L680.723,466.762L682.83,466.457L684.737,466.658L686.578,466.71L687.989,466.457L689.573,466.61L690.735,467.163L692.759,466.81L694.913,466.81L696.979,466.457L698.817,466.81L700.73,465.95L702.328,465.091L704.193,464.375L708.03,462.439L709.089,462.797L710.139,463.512L710.843,464.428L712.282,466.002L714.202,466.055L716.044,466.055L718.421,465.748L720.838,465.394L723.019,464.683L724.962,463.917L727.285,463.816L729.208,463.256L730.403,463.768L730.803,464.582L731.591,465.394L733.87,465.293L734.722,465.95L736.582,466.61L738.876,466.863L741.111,466.658L743.342,465.849L745.341,465.038L747.312,464.836L748.83,465.192L750.695,465.446L752.922,465.038L754.728,465.038L756.278,465.293L757.905,465.547L760.105,465.091L762.621,464.683L764.755,464.582L767.041,464.582L769.113,464.327L771.111,464.124L772.806,462.845L773.84,461.77L774.471,462.487L773.774,463.662L773.467,464.735L773.51,465.595L774.771,466.055L777.181,465.902L779.858,465.849L781.804,465.696L784.427,465.696L786.361,465.648L788.886,465.748L790.921,465.95L791.528,466.762L790.187,467.721L790.713,468.472L792.233,469.075L793.768,469.727L795.857,470.176L798.099,470.573L799.676,470.973L801.849,471.025L804.037,470.176L805.019,470.874L805.648,471.669L806.717,472.264L808.812,472.512L810.737,472.807L810.564,473.796L812.093,474.387L812.544,475.269L814.237,475.662L816.53,475.611L818.431,475.759L820.8,475.708L822.866,475.907L824.599,476.248L825.868,476.833L827.255,477.32L827.681,478.044L826.219,479.012L824.095,479.876L821.809,480.976L820.013,481.836L817.807,482.831L814.844,483.21L812.62,484.055L809.514,484.569L807.42,485.504L804.956,486.386L802.61,487.123L800.517,488.086L798.84,488.952L797.173,489.99L795.973,490.842L795.676,491.734L794.791,492.572L794.408,493.357L797.249,493.661L796.402,494.612L792.637,494.955L789.164,495.422L785.668,495.507L782.147,496.726L780.119,497.719L777.991,498.492L775.671,499.254L776.687,499.924L775.927,500.744L775.891,501.466L776.565,502.103L777.561,502.695L778.715,503.272L781.115,503.838L779.664,504.698L783.356,505.069L783.292,505.198L783.026,505.692L788.851,505.267L790.966,505.789L792.489,506.178L776.469,509.8L755.945,511.806L500,511.806L244.055,511.806L223.531,509.8ZM350.286,430.462L353.741,432.163L357.062,432.866L356.559,434.278L354.526,434.416L353.065,433.424L352.743,434.563L351.183,435.433L348.699,435.115L346.797,434.273L344.349,433.863L340.991,432.287L338.174,430.769L333.925,427.583L335.98,428.182L339.796,430.083L343.105,431.1L343.771,429.799L343.796,427.849L345.438,426.67L347.142,427.009L348.443,428.331ZM368.343,422.603L370.499,423.897L370.112,424.902L367.341,425.76L366.042,424.757L364.524,426.046L363.021,424.757L365.205,423.037L367.318,423.756ZM659.363,418.591L655.819,418.778L656.247,417.237L656.957,416.037L657.297,415.441L658.481,416.357L660.521,416.721L660.419,417.271ZM845.278,392.337L847.035,393.366L848.541,392.958L850.697,392.388L852.012,392.585L850.263,396.121L848.89,397.142L847.298,399.533L846.938,398.72L844.133,400.786L843.744,400.626L842.355,400.53L842.328,397.996L843.076,396.036L843.095,393.442L843.867,392.075ZM910.641,392.716L910.407,393.946L912.855,392.741L912.746,393.996L911.944,395.25L910.176,396.629L907.198,398.815L905.203,400.009L905.113,401.432L903.287,401.467L900.526,402.584L898.57,404.518L895.172,407.494L892.413,408.806L890.665,409.646L888.585,409.581L887.772,408.618L885.405,408.409L885.772,407.329L888.513,405.147L893.401,402.233L895.277,401.678L897.71,400.551L900.742,398.996L903.155,397.459L905.618,395.24L906.995,394.49L908.385,392.827L910.902,391.449ZM922.749,378.466L922.762,381.624L923.944,379.579L924.588,380.396L923.664,382.664L925.044,383.638L926.53,383.881L928.564,382.735L929.582,383.085L927.437,385.74L925.652,387.487L923.863,387.426L922.677,388.332L922.112,389.616L921.416,390.172L919.51,391.782L917.037,393.82L914.449,395.009L914.542,394.228L913.826,393.8L916.735,391.348L916.97,389.702L915.123,388.509L915.838,387.426L918.186,386.383L919.934,384.079L920.926,382.142L921.064,380.132L921.424,379.604L920.939,378.365L920.445,375.707L920.514,373.581L921.545,373.348L922.012,375.016L923.495,375.794ZM921.796,336.365L920.623,337.087L919.48,336.273L918.073,334.92L916.904,333.328L915.817,331.213L915.748,330.191L916.821,330.237L917.966,331.259L918.795,332.276L919.367,333.12L920.901,334.981ZM954.353,321.889L955.013,322.757L954.186,324.322L952.503,324.733L951.2,324.362L951.293,323.042L952.534,322.011L953.595,322.387ZM959.079,319.539L957.275,320.274L955.497,320.904L955.438,319.787L956.862,319.173L957.71,319.005L959.427,318.072L959.079,319.539ZM40.573,318.072L40.573,318.071L41.065,317.934L41.093,319.376L40.921,319.538L40.921,319.538L40.921,319.539L40.573,318.072ZM928.142,319.269L927.208,319.665L926.646,318.351L926.911,317.549ZM927.233,314.677L927.147,317.092L926.537,316.716L925.969,316.879L925.784,316.052L926.193,313.753ZM628.214,310.543L628.422,314.149L628.999,315.549L628.651,316.99L628.144,317.874L627.391,316.113L626.849,317.001L627.192,319.224L626.886,320.493L626.132,321.188L625.789,323.728L624.532,327.228L622.955,331.365L620.909,337.062L619.57,341.24L618.109,344.728L616,345.441L613.687,346.714L612.317,345.945L610.431,344.87L609.878,343.282L609.945,340.614L609.255,338.217L609.191,336.055L609.812,333.888L611.017,333.369L611.101,332.367L612.481,330.094L612.846,328.178L612.351,326.755L612.001,324.865L611.967,322.102L612.96,320.422L613.422,318.518L614.696,318.406L616.156,317.792L617.135,317.249L618.258,317.214L619.811,315.504L622.024,313.657L622.872,312.151L622.59,310.868L623.659,311.228L625.179,309.149L625.326,307.344L626.24,306.006L627.064,307.293L627.683,308.566ZM867.613,311.167L868.149,313.52L869.986,312.389L870.621,313.657L871.642,314.829L871.138,316.158L871.211,318.726L871.305,320.224L871.875,320.589L872.037,323.154L871.456,324.713L871.83,326.745L874.221,328.315L875.681,329.744L877.059,331.05L876.54,331.777L877.508,333.664L877.624,336.914L878.813,336.253L879.481,337.556L880.227,337.092L879.759,340.278L880.996,342.126L881.814,343.277L883.013,345.711L882.931,348.13L882.421,349.847L881.614,351.706L881.895,354.264L880.779,356.929L879.827,358.325L878.13,361.01L877.503,362.737L876.148,364.892L873.927,367.632L871.495,369.108L869.596,371.44L868.128,372.925L866.25,375.519L864.633,377.013L862.979,379.259L861.685,381.325L861.348,382.274L859.464,383.313L856.717,383.425L853.896,384.651L852.23,385.811L850.145,387.097L848.815,385.771L847.603,385.244L848.723,383.683L847.137,384.251L843.996,386.419L842.315,385.609L841.177,385.133L839.904,384.92L837.983,384.053L837.277,382.208L837.843,379.929L837.947,378.416L837.275,377.196L835.097,376.835L836.503,375.377L836.83,373.149L834.79,375.224L832.4,375.778L834.359,374.116L835.427,372.381L836.95,370.91L837.624,368.681L834.637,371.246L832.703,372.274L830.816,374.665L829.41,373.429L830.116,371.836L829.425,369.653L828.552,368.528L829.27,367.83L826.789,366.007L825.095,365.921L823.246,364.459L818.735,364.744L815.186,365.819L812.036,366.822L809.762,366.624L806.633,368.166L804.266,368.864L803.249,370.437L801.91,371.658L799.809,371.735L798.186,371.999L796.215,371.455L794.353,371.781L792.627,371.918L790.62,373.52L789.956,373.388L788.431,374.238L786.931,375.189L785.195,375.072L783.567,375.072L781.641,373.154L780.527,372.579L781.15,370.859L782.499,370.447L783.137,369.765L783.398,368.686L784.365,366.593L784.646,364.81L784.261,361.764L784.363,360.047L784.96,358.335L784.517,356.373L784.698,355.487L783.92,354.289L784.227,351.93L783.412,349.551L783.378,348.267L784.154,349.566L784.001,346.775L785.025,347.646L785.485,348.813L785.819,347.269L785.14,344.901L785.126,343.954L784.745,343.053L785.416,341.317L786.087,340.573L786.758,339.072L786.869,337.311L788.351,335.149L788.068,337.438L789.569,335.373L791.821,334.366L793.317,333.084L795.467,331.981L796.662,331.747L797.29,332.118L799.507,330.999L801.106,330.664L801.617,330.008L802.345,329.733L803.728,329.805L806.565,328.925L808.2,327.594L809.15,325.988L810.92,324.464L811.253,323.265L811.601,321.635L813.807,319.087L814.446,321.676L815.64,321.077L814.971,319.66L816.008,318.203L817.023,318.853L817.701,316.574L819.327,315.098L820.121,313.916L821.486,313.403L821.645,312.567L822.718,312.917L822.872,312.166L824.058,311.735L825.351,311.329L827.042,312.704L828.202,314.479L829.791,314.499L831.376,314.783L831.086,313.135L832.663,310.736L833.936,309.95L833.634,309.205L834.981,307.491L836.67,306.437L837.935,306.792L840.169,306.229L840.317,304.699L838.551,303.71L839.971,303.275L841.583,304.02L842.799,305.246L844.863,306.011L845.632,305.707L847.099,306.629L848.709,305.773L849.645,306.031L850.321,305.459L851.297,306.939L850.391,308.54L849.248,309.752L848.348,309.854L848.465,311.05L847.49,312.546L846.344,314.022L846.392,314.864L848.147,316.524L849.948,317.483L851.077,318.518L852.595,320.295L853.312,320.29L854.497,321.056L854.711,321.986L856.938,323.001L858.821,321.975L859.64,320.366L860.406,319.036L861.021,317.391L862.224,315.007L862.111,313.556L862.438,312.688L862.417,310.969L863.101,308.713L863.68,308.104L863.426,307.106L864.264,305.52L864.963,303.873L865.137,303.021L866.238,301.897L866.776,303.361L866.705,305.241L867.302,305.601L867.228,306.863L867.94,308.383L867.876,310.082ZM916.688,301.344L917.267,302.373L915.475,302.353L914.745,300.514L916.185,301.233ZM810.342,300.615L809.253,300.671L806.046,298.574L808.498,297.986L809.766,298.898L810.578,299.81ZM913.671,299.516L912.662,299.587L911.126,299.283L910.647,298.822L910.948,297.632L912.587,298.103L913.353,298.731ZM915.903,298.7L915.445,299.253L913.85,296.66L913.52,294.872L914.392,294.872L915.049,297.267ZM819.942,300.316L817.672,300.975L817.403,300.615L817.736,299.597L819.012,297.774L821.668,296.584L822.026,295.88L824.299,295.206L826.106,295.105L826.945,294.731L827.886,295.105L826.87,295.915L824.075,297.222L821.836,298.083ZM803.66,294.199L804.525,294.999L806.139,294.756L806.675,296.027L803.65,296.629L801.828,297.029L800.45,297.004L801.471,295.282L802.891,295.257ZM816.548,294.199L816.031,295.86L812.094,296.71L808.697,296.341L808.788,295.247L810.877,294.624L812.417,295.52L814.151,295.293ZM911.698,294.923L911.744,295.525L909.858,294.255L908.557,293.181L907.688,292.184L908.097,291.88L909.216,292.599L911.194,293.976ZM905.974,291.966L905.439,292.133L904.378,291.455L903.428,290.225L903.6,289.724L905.032,290.99ZM780.02,290.261L784.949,290.559L785.588,289.324L790.281,290.762L791.091,292.7L794.921,293.247L797.95,295.024L794.922,296.163L792.18,294.958L789.847,295.039L787.194,294.817L784.822,294.28L781.916,293.141L780.044,292.842L778.943,293.217L774.329,291.987L773.962,290.701L771.609,290.478L773.536,287.624L776.656,287.801L778.673,288.97L779.728,289.198ZM847.432,288.575L845.961,290.61L845.868,288.358L846.392,287.285L846.992,286.273L847.524,287.148ZM901.836,290.387L901.087,290.686L900.069,289.537L899.083,287.639L898.691,285.362L899.062,285.073L899.284,285.959L900.018,286.637L901.133,288.535L902.268,289.547ZM892.095,286.374L890.723,286.617L890.256,287.457L888.792,288.186L887.422,288.884L886.049,288.879L883.996,288.014L882.587,287.179L882.862,286.253L885.146,286.688L886.573,286.455L887.053,285.023L887.43,284.947L887.58,286.536L889.062,286.308L889.852,285.286L891.356,284.218L891.172,282.458L892.718,282.402L893.213,282.893L893.074,284.547ZM828.555,280.338L827.552,281.329L825.788,280.783L825.33,279.498L827.947,279.351ZM836.912,279.245L837.767,281.532L835.639,280.297L833.492,280.049L832.025,280.247L830.244,280.141L830.901,278.496L834.103,278.375ZM895.255,283.449L894.402,284.244L894.015,282.483L893.467,281.324L892.339,280.348L890.92,279.073L889.091,278.193L889.83,277.469L891.198,278.309L892.049,278.967L893.109,279.685L894.088,280.94L895.029,281.896ZM846.526,273.443L847.149,278.274L849.758,280.065L852.013,276.893L855.018,275.092L857.315,275.087L859.507,276.129L861.396,277.201L864.15,277.773L868.563,279.832L873.261,281.542L874.972,283.07L876.322,284.573L876.615,286.339L880.78,288.186L881.292,289.77L878.891,290.094L879.301,292.083L881.422,294.047L882.767,297.222L884.251,297.12L884.001,298.447L885.934,298.954L885.09,299.516L887.667,300.777L887.28,301.643L885.551,301.851L885.011,301.076L882.85,300.742L880.304,300.291L878.526,298.381L877.241,296.736L876.167,294.118L872.93,292.807L870.673,293.662L869.005,294.65L869.111,296.857L866.984,297.885L865.601,297.384L862.946,297.257L860.898,294.801L858.338,294.204L857.62,295.055L854.348,295.146L855.658,292.711L857.35,291.88L856.926,288.631L855.843,286.121L850.982,283.591L848.867,283.338L845.11,280.576L844.29,282.028L843.284,282.291L842.744,281.198L842.783,279.898L840.86,278.431L843.67,277.353L845.509,277.409L845.315,276.62L841.531,276.615L840.544,274.834L838.247,274.283L837.177,272.801L840.661,272.077L841.988,271.106L846.128,272.33ZM823.517,265.754L821.47,268.724L819.528,269.295L817.043,268.713L812.738,268.86L810.479,269.29L810.113,271.551L812.395,274.212L813.806,272.856L818.631,271.839L818.415,273.215L817.294,272.78L816.147,274.536L813.85,275.694L816.2,279.523L815.702,280.55L817.877,284.001L817.761,285.964L816.339,286.839L815.383,285.792L816.745,283.343L814.156,284.502L813.553,283.672L813.936,282.518L812.143,280.768L812.426,277.854L810.673,278.759L810.778,282.245L810.682,286.526L809.024,286.956L807.966,286.08L808.829,283.328L808.539,280.444L807.452,280.424L806.714,278.375L807.829,276.417L808.24,274.045L809.559,269.538L810.094,268.309L812.278,266.088L814.306,266.968L817.565,267.383L820.531,267.257L823.06,265.087ZM832.437,266.614L832.316,269.229L830.985,268.936L830.596,270.752L831.648,272.33L830.919,272.689L829.889,270.797L829.112,266.979L829.598,264.591L830.432,263.503L830.649,265.132L832.179,265.395ZM772.939,287.492L770.076,287.553L768.016,285.053L764.801,282.614L763.754,280.803L761.865,278.37L760.626,276.129L758.7,271.946L756.435,269.452L755.669,266.882L754.685,264.551L752.329,262.669L750.923,260.109L748.934,258.439L746.128,255.141L745.845,253.623L747.503,253.744L751.521,254.321L753.915,257.24L755.976,259.269L757.432,260.514L759.944,263.726L762.577,263.771L764.772,265.82L766.29,268.324L768.256,269.69L767.218,272.128L768.689,273.165L769.618,273.241L770.03,275.325L770.903,276.994L772.795,277.257L774.006,279.149L773.239,282.867ZM804.471,264.54L807.409,267.302L804.352,267.656L803.495,269.695L803.598,272.401L801.093,274.444L800.973,277.424L799.84,281.992L799.497,280.93L796.512,282.275L795.553,280.449L793.718,280.277L792.455,279.321L789.355,280.393L788.458,278.952L786.762,279.114L784.642,278.77L784.322,274.758L783.049,273.929L781.823,271.374L781.47,268.759L781.746,265.987L783.252,264.004L785.165,265.026L787.146,264.47L787.616,261.94L788.708,261.374L791.787,260.726L793.561,258.364L794.762,256.471L795.736,255.353L797.85,253.719L799.726,251.639L800.883,249.301L801.922,249.29L803.344,250.804L803.54,252.104L805.286,252.939L807.478,253.835L807.351,255.009L805.63,255.156L806.16,256.618L804.296,257.635L802.921,260.332L804.891,263.164ZM825.416,244.846L825.838,246.83L826.114,248.511L825.427,251.244L824.272,248.197L823.174,249.716L824.142,251.917L823.49,253.319L820.352,251.583L819.487,249.417L820.167,248L818.427,246.582L817.714,247.823L816.49,247.706L814.706,249.377L814.218,248.501L815.042,245.98L816.597,245.139L817.902,244.01L818.924,245.367L820.821,244.547L821.121,243.21L822.93,243.134L822.564,240.82L824.784,242.238L825.135,243.742ZM709.449,251.477L707.229,252.16L705.907,249.781L705.247,245.484L706.134,240.628L708.014,242.289L709.332,244.395L710.738,247.514L710.491,250.627ZM343.322,239.772L341.158,240.101L340.709,239.832L341.5,239.007L341.507,237.826L343.007,237.436L343.538,237.543ZM818.733,239.265L817.907,240.253L817.281,242.142L816.556,243.028L814.781,240.957L815.231,240.156L815.796,239.321L815.879,237.462L817.275,237.284L817.08,239.3L818.668,236.413ZM804.916,242.147L801.733,244.988L802.822,242.891L804.511,241.048L805.859,238.976L806.9,236.002L807.61,238.444L806.078,240.091ZM812.813,234.436L814.454,235.364L816.09,235.359L816.184,236.61L815.129,237.882L813.594,238.784L813.356,237.391L813.374,235.866ZM822.001,233.626L823.113,236.97L821.045,236.175L821.204,237.183L822.031,239.027L820.879,239.701L820.555,237.593L819.761,237.436L819.162,235.627L820.696,235.866L820.526,234.73L818.687,232.445L821.151,232.51ZM811.469,230.914L811.105,233.499L809.825,232.004L808.225,229.722L810.434,229.834ZM808.419,214.618L810.139,215.472L810.776,214.694L811.153,215.456L810.954,216.701L812.197,218.849L811.938,221.341L810.589,222.336L810.563,224.752L811.479,227.141L812.879,227.471L813.962,227.116L817.392,228.779L817.363,230.407L818.297,231.127L818.205,232.505L816.024,231.035L814.867,229.464L814.358,230.564L812.487,228.769L810.214,229.21L808.853,228.551L808.813,227.313L809.507,226.547L808.644,225.858L808.466,226.938L806.958,225.213L806.389,223.909L805.846,221.037L807.031,222.027L806.527,217.331L806.872,214.613ZM333.178,215.446L332.455,216.203L330.543,216.183L329.039,216.289L329.02,215.004L329.43,214.567L331.506,214.583L332.779,214.847ZM304.288,216.523L303.463,217.026L302.087,216.543L300.756,215.451L301.147,214.765L302.233,214.557L302.807,214.659L304.487,214.928L305.751,215.649L306.081,216.467ZM315.961,210.512L318.106,210.985L318.476,210.471L320.455,210.487L321.874,211.259L322.549,211.183L322.888,212.245L324.284,212.189L324.105,213.084L325.227,213.19L326.356,214.293L325.288,215.512L324.146,214.862L322.971,214.989L322.143,214.847L321.629,215.39L320.639,215.578L320.322,214.847L319.434,215.279L318.204,217.336L317.602,216.858L317.564,215.995L315.924,215.487L314.702,215.695L313.178,215.477L311.927,216.035L310.665,215.101L310.992,214.135L313.288,214.552L315.184,214.791L316.172,214.125L315.155,212.825L315.305,211.676L313.761,211.208L314.425,210.38ZM780.41,214.095L778.451,215.538L776.212,214.608L775.707,212.022L776.722,210.665L779.347,209.821L780.81,209.892L781.583,211.041L780.7,212.362ZM105.007,212.875L104.511,213.378L103.983,212.952L104.26,212.113L104.112,211.015L104.323,210.685L104.886,210.192L104.863,209.602L105.08,209.323L105.258,209.379L106.104,209.887L106.485,210.146L106.795,210.548L107.182,211.6L107.077,211.768L105.934,212.408ZM104.828,208.189L103.914,208.407L103.653,207.772L103.427,207.528L103.45,207.34L103.764,207.085L104.589,207.37L105.133,207.828ZM103.533,206.592L103.364,206.912L102.031,206.826L102.321,206.46ZM101.385,206.155L101.201,206.328L101.039,206.287L100.186,206.18L100.055,205.504L99.989,205.382L100.778,204.964L100.934,205.158ZM97.667,204.171L97.282,204.466L96.593,203.922L96.784,203.703L97.26,203.408L97.824,203.469ZM299.166,201.815L300.003,202.914L302.412,202.578L303.202,203.281L305.078,205.142L306.47,206.5L307.313,206.46L308.736,207.07L308.444,207.919L310.297,208.041L312.058,209.272L311.671,209.973L309.937,210.355L308.212,210.502L306.497,210.268L302.828,210.558L304.737,208.885L303.809,208.102L302.203,207.904L301.445,207.034L301.078,205.326L299.633,205.443L297.392,204.634L296.728,204.003L293.507,203.54L292.713,202.955L293.771,202.202L291.317,202.049L289.271,203.611L288.22,203.652L287.746,204.385L286.441,204.715L285.411,204.43L286.881,203.499L287.593,202.416L288.841,201.749L290.221,201.159L292.17,200.874L292.83,200.543L294.972,200.757L296.953,200.792ZM305.007,198.828L304.369,198.975L304.002,197.244L303.199,196.374L304.047,194.464L304.786,194.581L305.266,197.081ZM805.415,201.739L804.881,204.206L802.994,201.668L802.195,199.438L802.965,196.481L804.413,194.204L805.785,195.101L805.793,196.918ZM305.663,190.338L302.856,190.822L302.879,189.707L304.089,189.467L305.726,189.559ZM307.718,190.308L306.929,192.447L306.533,192.065L306.833,190.491L305.924,189.299L305.974,188.958ZM828.413,167.56L829.123,168.593L828.445,170.41L827.076,169.448L826.081,170.145L826.093,171.906L824.18,171.051L823.665,169.621L824.337,167.829L825.859,168.175L826.369,166.914ZM583.868,162.988L582.358,164.264L582.599,164.828L582.694,165.072L580.318,166.293L579.088,165.901L578.411,164.696L579.555,164.584L579.72,164.569L579.998,163.842L581.75,163.883ZM557.481,162.887L558.883,163.898L560.758,163.725L562.584,163.939L562.563,164.462L563.856,164.101L563.619,164.991L560.137,165.245L560.126,164.747L557.118,164.162ZM537.269,155.315L536.522,157.672L536.923,158.601L536.494,160.139L534.589,159.012L533.35,158.687L529.928,157.165L530.194,155.624L533.017,155.898L535.458,155.573ZM521.832,146.419L523.323,148.532L523.122,152.484L522.031,152.292L521.088,153.289L520.16,152.5L519.961,148.896L519.363,147.19L520.675,147.341ZM840,158.575L840.163,160.971L841.237,162.475L840.872,164.589L838.352,166.003L834.149,166.186L832.027,169.621L829.944,168.465L828.953,166.217L824.978,166.878L822.636,168.297L819.801,168.353L823.111,170.567L823.304,175.68L822.151,176.944L820.554,175.777L820.214,173.062L818.347,172.186L816.605,170.125L818.579,169.198L819.142,167.31L820.996,165.754L821.96,163.705L826.425,162.805L829.272,163.42L829.532,158.088L831.766,159.519L833.971,156.521L834.806,155.361L834.578,151.7L832.531,148.345L832.581,146.459L834.818,145.915L838.21,150.047L839.321,152.469L838.545,155.482ZM522.561,143.614L521.857,145.91L520.763,145.305L520.155,143.302L520.594,142.201L522.071,141.066ZM836.297,137.618L838.297,138.249L839.237,136.998L841.652,140.319L838.62,141.131L838.149,144.082L833.362,142.05L833.784,145.3L831.184,145.345L829.314,142.392L829.259,140.108L831.669,139.942L830.066,135.853L829.436,133.559L833.941,136.628ZM353.047,130.624L354.622,131.016L356.78,130.937L355.325,132.14L354.426,132.329L351.817,131.086L351.511,130.103L352.631,129.195ZM359.357,123.163L358.236,123.217L355.551,122.303L353.847,120.935L354.701,120.695L357.466,121.42L359.44,122.632ZM217.992,124.895L216.618,125.299L213.612,123.974L213.508,122.947L212.066,121.93L212.14,121.106L210.117,120.582L210.188,119.013L210.789,118.344L212.77,118.974L213.9,119.408L215.841,119.716L216.022,120.714L216.356,122.087L217.944,123.286ZM373.458,118.583L371.293,121.111L373.024,120.137L374.387,120.754L373.328,121.763L375.146,122.558L376.37,121.852L378.414,122.745L377.194,124.876L378.907,124.378L378.838,125.921L379.128,127.734L377.573,130.311L376.51,130.42L375.117,129.87L376.173,127.472L375.624,127.101L372.358,129.641L371.006,129.537L372.958,128.165L370.924,127.452L368.419,127.626L363.988,127.537L363.857,126.672L365.551,125.645L364.763,124.856L367.146,123.104L370.723,118.495L372.561,116.858L374.777,115.866L375.784,115.992L375.14,116.77ZM207.11,108.997L209.384,108.772L206.551,111.998L206.993,114.294L206.103,114.29L205.614,112.983L205.658,111.671L205.133,110.784L205.575,109.535L206.319,108.633ZM823.707,118.412L829.409,123.536L825.417,122.578L826.701,126.785L830.796,129.78L831.974,131.831L829.151,130.063L828.999,132.334L827.1,129.87L825.611,127.022L823.363,123.876L822.471,121.685L820.007,117.822L816.758,114.997L814.203,111.092L815.31,109.789L813.475,108.475L814.157,108.078L816.114,109.953L818.858,112.693L820.785,115.507ZM484.846,114.067L480.813,115.759L477.664,115.327L479.612,112.341L478.593,109.448L481.695,107.231L483.409,105.914L485.251,105.8L487.549,107.542L486.307,109.487L486.61,111.516ZM527.709,104.573L526.549,106.849L524.156,105.262L523.781,104.093L526.924,103.169ZM169.364,100.365L166.31,101.425L165.811,100.708L166.593,99.406L169.396,98.421L170.905,98L172.174,98.187L172.347,99.044ZM493.579,96.165L491.225,99.152L493.426,98.772L495.781,98.786L495.196,101.048L493.205,103.553L495.454,103.733L497.55,107.346L499.053,107.8L500.411,111.03L501.044,112.153L503.746,112.698L503.488,114.527L502.349,115.366L503.255,116.848L501.237,118.359L498.228,118.329L494.382,119.125L493.333,118.559L491.825,119.907L489.741,119.579L488.128,120.685L486.937,120.108L490.313,117.077L492.337,116.459L488.826,115.978L488.218,114.837L490.579,113.951L489.394,112.409L489.853,110.544L493.151,110.804L493.494,109.156L492.018,107.375L489.363,106.878L488.862,106.115L489.69,104.858L488.987,104.084L487.778,105.41L487.725,102.71L486.678,101.288L487.557,98.416L489.293,96.174L490.996,96.393ZM149.468,92.667L147.75,93.093L146.859,92.584L146.312,91.842L148.855,91.377L150.281,91.625ZM335.091,86.585L333.594,87.996L332.78,87.768L332.625,86.966L332.815,86.78L334.013,85.976L334.836,86.035ZM330.368,85.102L327.184,86.58L325.747,86.521L325.667,85.795L327.853,84.56L330.675,84.587ZM147.385,82.25L148.099,82.758L149.676,82.484L150.587,83.185L152.255,83.54L151.778,83.829L149.611,84.393L148.658,83.815L148.388,83.333L146.406,83.486L146.17,83.252ZM327.857,77.319L327.589,78.466L328.856,78.063L329.654,78.751L331.391,79.653L333.29,80.473L332.817,81.73L334.428,81.524L335.448,82.403L333.192,83.239L330.323,82.6L329.8,81.408L327.018,82.816L323.344,84.194L323.48,82.636L320.549,82.892L323.06,81.582L324.471,79.506L326.517,77.103ZM470.87,75.24L470.243,76.922L472.365,78.706L469.533,80.715L463.434,82.528L461.601,83.009L458.946,82.618L453.333,81.779L455.511,80.612L451.261,79.324L454.937,78.817L454.962,78.045L450.806,77.439L452.441,75.741L455.545,75.358L458.435,77.121L461.683,75.706L464.122,76.441L467.558,75.055ZM348.611,73.444L346.301,73.575L346.467,72.315L348.07,70.879L350.072,70.525L351.249,71.23L350.704,72.329L350.292,72.685ZM616.364,146.202L617.944,148.315L619.082,148.457L619.953,149.259L618.04,149.497L618.019,151.817L617.791,152.864L617.028,153.562L617.331,155.046L618.449,157.256L620.83,157.88L622.749,159.382L626.268,159.9L629.907,159.108L630.02,158.403L629.2,156.288L628.983,153.158L626.939,152.145L627.171,150.098L625.561,149.926L625.612,147.412L627.992,148.144L629.892,147.19L627.815,145.401L626.796,143.699L625.042,144.459L625.226,146.64L624.112,144.711L623.844,143.986L624.178,142.749L623.523,141.714L620.596,140.7L619.013,138.044L617.567,137.293L617.299,136.333L619.622,136.613L619.268,134.456L621.14,133.977L623.267,134.416L623.053,131.548L622.23,129.736L619.955,129.875L617.84,129.161L615.455,130.45L613.432,131.066L612.729,132.807L610.58,133.29L608.854,136.333L611.498,139.14L611.636,141.137L614.839,144.635ZM865.94,79.093L865.941,79.106L864.667,80.264L861.798,80.068L865.246,81.475L868.951,83.662L870.709,84.379L872.181,85.482L872.441,86.194L867.924,85.609L864.293,87.631L862.771,87.946L861.551,89.843L860.199,91.506L860.671,92.746L855.761,90.862L852.374,93L850.421,91.985L849.52,93.157L846.33,92.783L847.353,94.579L847.275,97.242L848.375,98.36L851.387,98.979L854.735,103.032L852.806,103.136L853.904,105.481L855.857,106.696L853.219,108.135L855.109,111.377L852.347,112.071L853.954,114.973L852.76,117.652L850.436,115.672L846.26,111.502L839.966,105.215L837.756,101.335L838.142,99.673L837.123,98.379L839.908,97.761L840.563,94.296L841.562,91.487L843.235,89.325L841.103,85.532L838.816,85.759L839.781,87.973L837.341,90.94L832.426,87.617L827.915,88.534L826.856,93.083L830.124,94.76L826.002,95.476L822.947,95.76L821.365,93.777L817.706,93.361L816.245,94.709L809.331,94.236L803.011,95.048L800.339,100.44L796.856,107.05L800.573,107.403L802.907,109.175L805.502,109.808L805.906,108.389L808.461,108.576L813.893,111.699L815.67,114.125L815.885,116.994L817.983,120.435L819.917,125.078L819.04,129.304L819.452,131.334L818.255,134.76L816.973,138.169L816.387,139.917L814.152,141.654L812.69,141.694L810.478,140.253L808.41,142.422L808.533,143.413L807.544,143.232L807.015,144.243L806.794,145.255L807.886,147.392L806.968,148.048L806.784,148.578L806.293,149.456L804.928,149.946L804.248,150.75L804.74,152.044L804.608,152.373L805.775,152.859L807.696,154.17L811.272,157.703L812.667,159.646L814.085,163.105L813.813,164.757L811.828,165.332L810.354,166.578L808.257,166.837L807.373,165.2L806.968,162.948L804.669,159.824L806.258,159.321L803.563,156.754L802.158,156.182L802.097,156.749L801.497,156.998L801.178,156.43L800.443,156.156L799.598,155.68L799.716,154.363L800.131,154.013L799.684,153.466L799.607,151.852L799.24,151.362L797.699,151.038L796.228,150.239L793.268,151.104L792.103,152.505L789.855,153.319L790.557,151.933L789.57,150.77L790.599,148.764L788.66,147.2L787.049,148.255L785.238,150.33L784.563,152.257L782.281,152.403L781.614,153.795L783.679,155.822L785.835,156.313L786.434,157.657L788.678,158.53L790.542,156.394L793.142,157.561L794.725,157.637L795.742,159.21L792.64,160.047L792.12,161.667L790.32,163.171L789.835,165.276L793.039,166.924L795.024,169.885L797.442,172.64L799.875,174.952L800.549,177.188L799.262,178.008L800.345,179.613L802.092,180.551L802.444,183.002L802.502,185.386L801.192,185.656L800.274,188.917L799.285,192.865L797.844,196.455L795.037,199.23L792.1,201.764L789.334,202.11L788.071,203.443L786.995,202.466L785.879,203.962L782.653,205.468L780.067,205.926L779.799,209.099L778.427,209.277L777.359,207.096L777.739,205.936L774.16,204.97L773.063,205.463L770.16,208.031L768.55,210.868L768.34,212.952L770.785,216.117L773.759,220.037L776.338,221.89L778.223,224.3L780.093,229.844L780.333,235.11L778.383,237.082L775.62,239.012L773.731,241.504L770.739,244.289L769.66,242.375L770.218,240.344L768.166,238.647L765.972,238.206L764.795,236.651L763.194,233.555L760.754,232.181L758.563,232.237L758.692,229.884L756.434,229.9L756.573,233.195L755.592,237.568L754.979,240.212L755.32,242.38L757.004,242.471L758.242,245.2L758.87,247.792L760.406,249.503L761.985,249.852L763.403,251.401L764.012,251.684L765.621,253.486L766.784,255.49L767.008,257.504L766.783,258.864L767.064,259.891L767.295,261.657L768.224,262.482L769.283,265.127L769.249,266.134L767.419,266.336L764.944,264.121L761.84,261.748L761.505,260.225L759.95,258.227L759.511,255.753L758.516,254.124L758.695,251.943L758.066,250.677L756.983,249.528L756.464,248.05L754.989,246.36L753.646,244.942L753.34,246.699L752.743,245.038L752.894,243.17L753.44,240.303L753.009,238.08L753.603,235.79L752.57,234.016L752.457,230.751L751.25,229.2L750.018,225.614L749.096,221.829L747.661,219.341L746.178,220.849L743.55,222.986L742.084,222.717L740.418,222.016L740.826,218.3L739.912,215.487L737.422,212.027L737.571,210.944L736.025,210.558L733.854,208.113L732.886,206.541L732.494,205.01L731.774,203.565L730.425,201.815L728.082,201.698L728.516,202.935L728,204.608L726.828,203.998L726.544,204.547L725.782,204.217L724.757,203.947L724.577,205.046L722.853,205.01L719.829,205.631L720.314,207.894L719.221,209.668L715.849,211.691L713.463,215.223L711.78,217.117L709.477,219.077L709.622,220.458L708.435,221.199L706.252,222.275L705.074,222.433L704.531,224.716L705.43,228.617L705.784,231.101L704.924,233.945L705.281,239.032L703.958,239.179L702.935,241.458L703.772,242.446L701.476,243.291L700.724,245.327L699.729,246.187L697.145,243.393L695.714,239.204L694.525,236.185L693.529,234.771L691.949,231.892L691.011,228.145L690.408,226.273L687.704,222.159L686.064,216.345L684.882,212.504L684.463,208.865L683.623,206.053L680.165,207.848L678.336,207.492L674.596,203.85L675.667,202.762L674.77,201.581L671.48,199.031L669.541,198.268L668.5,196.104L666.244,193.817L661.704,194.383L657.642,194.439L654.169,194.861L649.335,193.95L646.527,193.257L643.65,192.87L642.128,189.177L640.865,188.642L639.012,189.182L636.674,190.639L633.507,189.64L630.709,187.327L628.213,186.472L626.204,183.613L623.876,179.598L622.612,180.087L620.912,179.088L620.14,180.265L618.653,180.118L619.329,181.448L619.188,182.135L620.247,184.403L621.518,187.001L622.824,187.689L623.363,188.744L625.21,190.007L625.491,191.25L625.357,192.254L625.78,193.267L626.59,194.108L627.028,195.096L627.475,195.834L627.082,193.644L627.587,192.065L628.235,191.739L629.096,192.687L629.332,194.444L628.969,196.216L629.567,197.366L629.995,197.219L630.18,198.044L632.094,197.57L634.182,197.646L635.711,197.738L637.206,195.702L638.854,193.771L640.22,191.918L640.815,190.894L641.161,191.153L641.079,192.396L640.812,192.946L641.434,195.32L642.799,197.377L644.324,198.466L646.216,198.863L647.763,199.408L649.09,201.133L649.881,202.131L650.831,202.512L650.896,203.184L650.17,204.975L649.858,205.819L648.892,206.78L648.148,208.835L646.984,208.677L646.524,209.394L646.266,210.919L646.76,212.926L646.554,213.292L645.383,213.282L643.889,214.405L643.765,215.868L643.24,216.503L641.653,216.477L640.715,217.234L640.818,218.448L639.653,219.28L638.227,218.996L636.595,220.006L635.432,220.174L633.643,220.981L633.238,222.316L633.251,223.336L630.784,224.599L626.783,226L624.61,228.115L623.494,228.277L622.72,228.104L621.283,229.347L619.68,229.92L617.539,230.077L616.902,230.249L616.377,231.04L615.714,231.258L615.362,232.019L614.085,231.953L613.282,232.358L611.502,232.206L610.759,230.457L610.756,228.82L610.289,227.937L609.681,225.721L608.881,224.488L609.388,224.341L609.048,222.971L609.329,222.392L609.146,221.088L608.742,219.803L607.919,218.905L607.646,217.706L606.271,216.63L604.761,214.115L603.883,211.666L601.995,209.602L600.831,209.109L598.962,206.246L598.527,204.156L598.509,202.375L596.822,199.041L595.557,197.865L594.154,197.244L593.192,195.518L593.276,194.841L592.46,193.277L591.678,192.61L590.529,190.369L588.808,187.944L587.375,185.875L586.132,185.891L586.39,184.235L586.41,183.185L586.611,181.983L586.493,181.544L585.9,182.757L585.552,185.03L585.006,186.599L584.465,187.124L583.556,186.151L582.332,184.81L580.221,180.495L579.984,180.765L581.263,183.944L583.028,186.971L585.267,191.658L586.305,193.293L587.24,194.994L589.727,198.324L589.266,198.848L589.481,200.802L592.593,203.499L593.079,204.115L594.09,207.065L593.569,207.609L594.124,210.7L595.265,214.288L596.277,215.025L597.731,216.137L599.397,219.605L600.247,222.362L601.718,223.823L605.344,226.654L606.844,228.358L608.316,230.087L609.165,231.116L610.46,232.019L611.11,232.946L611.08,234.188L609.649,234.908L610.782,235.724L611.645,236.276L612.192,237.512L613.396,238.769L614.673,238.779L617.068,238.014L619.847,237.659L622.075,236.727L623.342,236.529L624.233,235.982L625.69,235.881L626.51,235.82L627.672,235.374L629.017,235.075L630.187,234.051L631.157,234.041L631.253,234.867L631.104,236.61L631.183,238.181L630.683,239.265L630.089,242.501L628.964,245.838L627.481,249.66L625.376,254.043L623.236,257.387L620.251,261.465L617.688,263.888L613.845,266.852L611.442,269.128L608.611,272.745L608.009,274.323L607.42,275.031L605.599,276.225L604.957,277.469L603.989,277.692L603.597,279.797L602.756,281.001L602.229,282.989L601.174,283.976L599.925,287.659L600.041,289.355L601.67,290.448L601.727,291.222L600.98,293.029L601.106,293.941L600.902,295.368L601.749,297.242L602.724,300.195L603.637,300.848L604.007,302.191L603.797,305.17L604.006,307.8L603.902,312.48L604.284,313.951L603.414,316.092L602.315,318.173L600.591,320.031L598.199,321.173L595.251,322.63L592.21,325.851L591.201,326.4L589.31,328.534L588.221,329.225L587.889,331.365L588.956,333.644L589.338,335.403L589.317,336.304L589.772,336.156L589.505,339.103L589.003,340.497L589.556,341.016L589.097,342.269L587.973,343.338L585.833,344.351L582.705,345.981L581.529,347.096L581.656,348.359L582.281,348.563L581.951,350.147L581.161,352.338L580.686,354.84L579.938,356.2L578.124,357.718L577.609,358.157L576.439,359.685L575.634,361.229L574.061,363.389L571.036,366.491L569.163,368.299L567.214,369.668L564.563,370.834L563.311,370.992L562.933,371.826L561.48,371.378L560.226,371.954L557.62,371.373L556.119,371.74L555.119,371.582L552.531,372.768L550.413,373.246L548.845,374.38L547.729,374.451L546.764,373.383L545.943,373.327L544.962,371.984L544.826,372.401L544.544,371.592L544.653,369.831L543.961,367.815L544.774,367.265L544.826,364.958L543.344,362.141L542.22,359.588L542.211,359.583L540.595,355.67L538.827,353.398L537.936,351.197L537.476,348.267L536.933,346.088L536.229,341.454L536.265,337.856L535.99,336.217L535.039,334.981L533.787,332.494L532.533,328.895L532.023,327.009L530.009,324.078L529.892,321.777L529.683,319.889L530.073,317.254L530.997,314.509L531.153,313.221L532.02,310.523L532.646,309.291L534.14,307.334L534.988,306.001L535.285,303.781L535.167,302.084L534.411,301.015L533.746,299.202L533.133,297.404L533.278,296.786L534.077,295.596L533.322,292.711L532.809,290.706L531.531,288.813L531.776,288.231L531.419,287.305L530.744,285.058L528.638,281.891L525.998,278.876L524.292,276.407L522.724,273.322L522.809,272.33L523.376,271.374L524,269.199L524.519,266.984L524.035,266.528L524.924,263.175L525.291,260.812L524.282,258.839L523.1,258.333L522.576,256.992L521.915,256.562L521.94,255.738L519.258,256.815L518.282,256.654L517.289,257.326L515.226,257.261L513.838,255.389L512.988,253.228L511.154,251.254L509.214,251.295L506.939,251.29L504.814,251.639L502.735,252.277L498.686,254.027L497.255,255.055L494.932,255.92L492.629,255.07L491.458,255.105L489.657,254.518L488.003,254.554L484.946,255.075L483.151,255.935L480.593,257.033L480.091,256.957L479.413,256.982L476.76,255.556L474.428,253.279L472.236,251.644L470.511,249.716L469.816,249.493L467.969,248.288L466.645,246.689L466.2,245.595L465.905,243.382L464.792,241.615L463.805,240.44L463.152,240.055L462.52,239.457L462.24,238.135L461.869,237.477L461.136,236.985L459.776,235.734L458.697,235.536L458.128,234.695L458.144,234.239L457.378,233.605L457.223,232.962L456.837,230.665L457.194,229.337L456.178,227.004L454.929,225.939L456.064,225.371L457.341,223.265L457.98,221.722L457.795,220.108L458.544,218.63L458.921,215.802L458.719,212.84L458.447,211.346L458.742,209.846L458.124,208.418L456.831,207.121L456.978,205.855L457.138,204.461L458.126,203.642L459,202.075L458.867,201.057L459.803,198.934L461.265,197.02L462.12,196.537L462.842,194.785L462.946,193.181L463.905,191.322L465.603,190.221L467.285,187.149L468.61,185.952L470.939,185.616L472.952,183.562L474.214,182.757L476.345,180.245L475.816,176.5L476.821,173.913L477.188,172.324L478.818,170.293L481.297,168.918L483.133,167.677L484.824,164.564L485.619,162.724L487.408,162.734L488.848,164.01L491.158,163.801L493.671,164.467L494.729,164.498L497.071,162.856L499.69,162.338L501.215,161.098L503.546,160.184L507.638,159.651L511.626,159.408L512.85,159.849L515.105,158.672L517.683,158.646L518.682,159.342L520.328,159.164L522.916,157.951L524.619,158.311L524.59,159.829L526.604,158.728L526.798,159.301L525.639,160.768L525.667,162.16L526.53,162.907L526.3,165.505L524.743,167.015L525.257,168.654L526.516,168.705L527.176,170.135L528.125,170.603L531.035,171.642L532.058,171.382L534.123,171.881L537.427,173.225L538.689,175.904L540.931,176.485L544.458,177.748L547.16,179.241L548.331,178.462L549.441,177.076L548.744,174.774L549.435,173.307L551.122,171.896L552.792,171.489L556.139,172.105L557.063,173.449L557.983,173.46L558.795,173.974L561.26,174.325L561.929,175.324L565.194,175.273L567.626,176.067L570.13,176.959L571.311,177.428L573.136,176.47L574.079,175.609L576.23,175.359L578.016,175.741L578.806,177.234L579.3,176.251L581.33,176.964L583.271,177.132L584.419,176.373L585.038,175.385L584.854,175.212L585.379,173.806L585.656,171.535L585.935,170.776L586.002,170.746L586.627,168.292L587.618,166.176L587.651,166.069L587.176,163.771L587.634,162.536L586.593,161.175L587.38,160.047L585.939,160.306L583.836,159.616L582.359,161.342L578.725,161.677L576.604,160.068L573.984,159.966L573.546,161.21L571.906,161.571L569.426,159.971L566.795,160.022L565.102,157.043L563.199,155.381L564.157,153.056L562.512,151.624L564.889,148.769L568.542,148.653L569.306,146.388L573.864,146.782L576.488,144.852L579.141,144.011L583.035,143.946L587.442,146.041L591.005,147.195L593.699,146.736L595.779,147.003L598.344,145.446L598.507,144.177L597.597,142.151L596.07,141.056L594.714,140.715L593.712,139.807L590.344,137.308L587.511,136.193L585.24,134.461L586.857,133.987L588.399,131.528L586.915,130.366L590.121,129.17L589.947,128.531L587.964,129.002L586.163,129.24L584.778,130.187L582.643,130.341L580.819,131.434L581.219,133.265L582.458,133.972L584.806,133.798L584.502,134.845L582.03,135.359L579.103,137.068L577.728,136.463L578.053,135.08L575.393,134.217L575.736,133.653L577.814,132.672L577.053,132.001L573.356,131.26L573.051,130.162L570.964,130.525L570.315,132.14L568.789,134.316L568.931,135.075L567.876,135.714L567.139,135.434L566.89,139L565.809,140.228L565.18,142.347L566.112,144.041L566.512,145.189L568.683,146.146L568.324,146.877L565.523,147.044L564.605,147.962L562.771,149.572L561.897,148.184L561.866,147.568L560.413,147.483L559.149,147.2L556.344,147.977L558.131,149.653L556.963,150.138L555.642,150.138L554.257,148.603L553.864,149.259L554.538,151.043L555.845,152.444L554.992,153.102L556.437,154.479L557.689,155.345L557.858,157.038L555.571,156.242L556.397,157.774L554.894,158.088L555.999,160.733L554.4,160.768L552.325,159.463L551.257,157.069L550.694,155.077L549.665,153.699L548.315,151.994L548.101,151.144L547.674,150.937L547.586,150.28L546.195,149.274L545.892,147.856L545.946,145.824L546.204,144.897L545.779,144.429L545.261,144.197L544.529,143.232L543.469,142.638L541.183,141.543L539.75,140.474L537.548,139.591L535.452,137.413L535.909,137.193L534.768,135.953L534.666,134.955L533.14,134.491L532.5,135.764L531.758,134.775L531.751,133.753L531.832,133.708L532.335,133.439L530.466,133.011L528.633,134.057L528.832,135.519L528.588,136.358L529.428,137.863L531.703,139.356L533.017,141.804L535.77,144.197L537.615,144.182L538.232,144.837L537.603,145.431L539.79,146.504L541.588,147.407L543.724,148.961L544.009,149.522L543.632,150.588L542.223,149.194L540.12,148.704L539.238,150.634L541.021,151.741L540.828,153.304L539.838,153.481L538.7,156.045L537.708,156.278L537.669,155.361L538.077,153.755L538.56,153.117L537.536,151.387L536.724,149.881L535.718,149.507L534.948,148.219L533.39,147.679L532.305,146.479L530.538,146.288L528.627,144.943L526.384,143.01L524.712,141.297L523.868,138.369L522.692,138.029L520.755,137.053L519.693,137.453L518.381,138.825L517.418,139.04L515.335,140.715L510.687,139.912L507.287,140.876L507.037,142.659L507.183,144.389L504.962,146.368L501.926,146.998L501.715,148.002L500.253,149.653L499.333,152.085L500.263,153.795L498.881,155.127L498.358,157.074L496.536,157.672L494.811,159.981L491.749,160.022L489.445,159.966L487.914,161.027L486.972,162.16L485.79,161.911L484.912,160.9L484.259,159.174L482.02,158.707L481.028,159.484L479.77,159.062L478.518,159.392L478.949,157.049L478.777,155.209L477.714,154.93L477.172,153.795L477.424,151.842L478.413,150.755L478.623,149.547L479.176,147.755L479.164,146.494L478.721,145.426L478.653,144.419L478.843,142.307L477.923,141.016L481.313,138.88L484.166,139.416L487.314,139.396L489.803,139.902L491.747,139.747L495.537,139.842L496.763,138.069L497.237,132.195L494.875,129.116L493.195,127.635L489.713,126.509L489.526,124.388L492.491,123.753L496.308,124.501L495.614,121.214L497.754,122.46L503.025,120.2L503.691,117.837L505.653,117.257L507.44,116.688L508.582,115.9L510.453,111.69L513.454,110.501L515.299,110.582L515.708,109.981L517.549,109.828L517.989,110.452L519.425,109.055L518.877,107.992L518.703,106.391L517.743,104.829L517.555,101.968L517.881,101.217L518.465,100.379L520.355,100.209L521.075,99.443L522.759,98.66L522.774,100.087L522.187,100.991L522.489,101.774L523.693,102.194L523.222,103.249L522.555,102.946L521.093,104.963L521.764,106.334L521.852,107.422L524.114,108.082L524.147,109.089L526.363,108.556L527.551,107.781L530.109,108.897L531.224,109.804L532.665,108.969L536.002,107.661L538.686,106.706L540.922,107.184L541.155,107.872L543.282,107.905L543.652,106.663L546.577,105.753L545.846,103.392L545.683,101.288L546.535,99.542L548.45,98.594L550.431,100.671L552.159,100.614L552.284,98.487L552.306,96.855L551.568,97.205L550.079,96.225L549.682,94.644L552.263,93.884L554.88,93.486L557.249,93.935L559.432,93.856L561.59,92.344L559.16,91.055L555.37,91.271L551.802,92.266L548.438,92.843L547.015,91.358L544.859,90.462L544.982,87.804L543.653,85.378L544.437,83.824L546.072,82.156L550.31,79.297L551.574,78.746L551.185,77.638L548.172,76.406L544.812,77.143L543.11,78.973L543.647,80.581L540.673,82.708L536.955,85.003L535.847,88.785L537.544,90.692L539.72,92.201L538.101,95.285L535.944,95.927L535.559,100.572L534.564,103.188L531.902,102.918L530.833,105.139L528.315,105.267L527.434,102.62L525.414,99.457L523.533,95.555L521.996,93.87L517.959,97.051L515.131,97.696L512.111,96.29L511.259,93.342L510.4,87.085L512.257,85.36L517.607,83.122L521.493,80.393L524.931,76.736L529.286,71.742L532.389,69.821L537.372,66.644L541.481,65.542L544.695,65.674L547.282,63.606L550.812,63.715L554.17,63.219L560.605,65.046L558.254,65.716L560.738,67.297L562.547,66.418L566.11,67.947L571.628,68.547L579.851,71.429L581.714,72.651L582.321,74.367L580.467,75.732L577.357,76.423L567.913,74.45L566.516,74.779L570.227,76.683L571.377,80.581L574.196,81.385L575.958,82.071L575.92,80.791L574.363,79.618L575.474,78.662L580.806,80.299L582.357,79.658L580.488,77.735L584.491,75.187L586.384,75.336L588.529,76.243L589.166,74.459L587.046,72.921L587.557,71.386L585.624,69.799L591.4,70.62L592.986,72.055L590.576,72.372L591.033,73.802L592.879,74.691L595.793,74.13L595.745,72.485L599.483,71.26L605.575,69.071L607.102,69.196L605.746,70.745L608.294,71.009L609.376,70.136L613.049,70.067L615.541,69.011L618.425,70.546L619.947,68.861L617.267,67.391L617.927,66.558L624.022,67.322L627.093,68.114L635.577,71.022L636.262,69.687L633.619,68.341L633.305,67.806L630.827,67.557L630.902,66.362L628.915,64.407L628.471,63.61L630.881,61.368L630.962,59.141L632.115,58.663L637.472,59.306L638.621,60.665L637.893,62.665L639.513,63.459L641.056,65.203L642.403,68.654L645.374,70.213L645.386,71.924L643.266,75.591L645.752,75.974L646.093,75.038L647.975,74.376L647.866,73.095L648.961,71.872L647.056,70.416L647.101,68.736L644.844,68.526L643.639,67.121L643.847,64.597L640.247,62.572L642.749,60.91L641.319,59.166L642.235,59.112L644.007,60.469L644.601,62.849L646.91,63.303L645.025,61.518L647.657,60.548L651.533,60.42L655.907,61.823L652.961,59.777L651.154,57.187L654.111,56.702L658.687,56.808L662.534,56.494L660.149,55.242L661.191,53.683L663.268,53.619L665.983,52.453L670.597,52.14L670.704,51.501L675.331,51.285L677.259,51.809L680.327,50.576L683.708,50.615L683.331,49.623L684.171,48.651L687.549,47.726L691.341,48.455L689.419,49.016L693.849,49.364L695.413,50.498L696.55,49.941L701.889,49.968L707.102,51.097L709.42,51.967L710.131,53.184L708.744,53.883L705.065,55.202L704.287,55.91L706.903,56.246L710.202,56.853L711.482,56.397L713.82,57.944L714.089,57.318L716.747,56.938L723.139,57.334L724.643,58.465L732.883,58.828L731.208,56.979L735.607,57.4L738.592,57.387L742.911,58.667L745.325,60.229L745.192,61.256L749.468,63.202L753.467,64.213L752.786,61.61L756.964,62.723L759.562,62.057L764.049,62.82L764.746,62.124L768.244,62.472L764.466,60.183L765.841,59.124L784.746,60.715L788.015,62.179L795.167,64.074L802.418,63.602L806.734,64.015L809.538,65.046L811.417,66.882L814.639,67.6L816.661,67.083L820.042,67.019L824.314,67.515L827.679,67.232L833.777,69.489L835.242,68.676L831.712,67.057L831.209,65.937L838.287,66.644L842.148,66.49L849.28,67.694L853.423,68.8L865.94,79.093ZM146.577,68.8L146.577,68.801L146.577,68.801L148.984,70.745L151.103,73.3L149.035,74.906L149.633,75.552L151.375,73.671L156.349,74.056L157.506,76.485L154.222,77.62L150.602,77.89L147.669,80.46L146.247,81.005L144.417,80.929L143.891,80.01L142.055,79.244L142.913,78.103L141.342,77.678L138.654,78.014L138.63,77.098L140.209,76.132L137.059,76.75L136.522,77.979L134.06,79.093L134.06,79.093L146.577,68.8ZM312.445,68.436L310.623,69.325L308.501,68.556L306.712,68.835L304.828,67.694L307.103,66.912L309.232,65.822L310.797,66.537L311.649,66.989L311.911,67.468ZM846.219,63.233L847.362,64.099L845.409,64.226L844.036,63.438L845.11,62.401L846.219,63.233ZM154.89,62.401L154.89,62.401L154.89,62.401L153.781,63.233L154.89,62.401ZM154.89,62.401L155.273,62.3L156.889,62.304L158.73,63.013L158.118,63.353L155.358,63.947L152.638,64.099ZM323.079,67.45L321.421,70.045L325.3,68.054L326.632,69.687L324.885,71.581L325.769,73.318L328.947,71.46L331.697,69.256L333.489,66.482L336.136,66.673L338.8,67.045L340.697,68.298L340.1,69.558L337.858,70.918L338.488,72.289L337.535,73.545L332.612,75.354L329.595,75.754L327.965,74.972L326.616,76.278L323.41,78.48L322.167,79.626L318.79,81.412L315.762,81.587L313.492,82.708L312.371,84.438L309.775,84.772L305.99,86.944L301.997,89.98L299.973,92.123L298.105,95.299L300.99,95.76L300.591,98.341L300.515,100.445L303.811,99.894L307.235,101.099L308.882,102.161L309.813,103.482L312.186,104.25L313.959,105.434L317.504,105.595L319.764,105.872L318.357,108.312L317.842,111.165L318.153,114.357L320.426,117.082L322.513,116.148L324.856,113.206L325.492,108.71L324.553,107.222L328.615,105.905L331.901,103.932L333.916,101.986L334.529,100.125L334.077,97.77L332.394,95.694L336.203,92.825L336.416,90.361L337.71,86.153L339.459,85.532L342.671,86.262L344.692,86.521L346.735,85.818L348.254,86.725L350.132,88.288L350.32,89.334L353.97,89.54L352.963,91.819L352.264,95.276L354.046,95.704L354.964,97.326L358.644,95.797L361.834,92.774L363.718,91.51L364.447,93.944L365.956,97.452L367.186,100.779L365.721,102.53L368.101,104.108L369.554,105.714L372.817,106.439L373.96,107.341L374.126,109.736L375.738,110.111L376.327,111.184L375.597,114.391L373.676,115.468L371.793,116.474L367.805,117.496L364.306,119.868L360.346,120.338L355.69,119.726L352.304,119.706L349.907,119.907L347.365,121.984L344.07,123.271L339.583,127.126L336.113,129.825L338.215,129.344L343.062,125.507L348.585,123.079L352.078,122.789L353.67,124.216L350.951,126.173L350.789,129.324L350.938,131.538L353.556,133.006L357.496,132.578L360.657,129.28L360.268,131.409L361.5,132.473L358.147,134.401L352.553,136.153L349.93,137.348L346.775,139.481L345.052,139.261L345.612,136.758L350.303,134.321L346.555,134.416L343.872,134.775L344.011,135.744L341.14,137.173L338.456,138.194L335.748,139.07L333.878,141.006L333.449,141.498L333.002,143.071L333.369,144.645L334.328,144.721L334.365,143.634L334.899,144.293L334.492,145.144L332.765,145.627L331.648,145.567L329.763,146.091L328.693,146.237L327.272,146.383L325.071,147.246L328.703,146.686L329.256,147.251L325.698,148.144L324.182,148.149L324.347,147.785L323.409,148.613L324.076,148.749L323.004,150.891L320.669,153.193L320.693,152.424L320.208,152.267L319.618,151.523L319.694,153.132L320.126,153.669L319.912,154.793L318.852,155.959L316.903,158.352L316.715,158.23L317.964,156.192L317.023,155.046L317.376,152.565L316.585,153.856L316.611,155.756L315.21,155.31L316.555,156.253L315.956,159.103L316.592,159.311L316.595,160.347L316.231,163.349L314.181,165.581L311.455,166.471L309.458,168.231L308.193,168.425L306.704,169.529L306.134,170.542L303.011,172.492L301.309,173.923L299.761,175.711L298.926,177.845L298.936,179.939L299.239,182.512L299.934,184.642L299.695,185.947L300.24,189.437L299.803,191.464L299.493,192.636L298.56,194.474L297.748,194.851L296.573,194.49L296.401,193.17L295.566,192.478L294.705,189.89L293.974,187.587L293.822,186.41L294.721,184.408L294.363,182.752L292.945,180.235L292.082,179.771L289.289,181.142L288.885,180.989L287.984,179.583L286.599,178.839L283.721,179.221L281.6,178.885L279.667,179.094L278.522,179.516L278.812,180.362L278.496,181.585L278.891,182.181L278.333,182.574L277.511,182.13L276.457,182.701L274.674,182.609L273.186,181.014L270.943,181.391L269.304,180.693L267.712,180.907L265.463,181.611L262.688,183.842L259.923,185.142L258.238,186.579L257.37,187.934L256.891,190.007L256.708,191.454L256.962,192.478L256.97,192.483L256.96,192.488L255.458,195.116L254.586,197.285L253.642,201.311L253.13,202.782L253.275,204.42L253.804,205.885L253.926,208.214L255.246,210.451L255.576,212.164L256.352,213.643L258.936,214.44L259.802,215.695L262.153,214.857L264.136,214.552L266.115,214.014L267.787,213.5L269.569,212.276L270.434,210.522L271.012,208.001L271.585,207.121L273.419,206.333L276.203,205.636L278.425,205.743L280.002,205.488L280.506,206.124L280.207,207.574L278.588,209.358L277.726,211.188L278.119,211.712L277.557,213.007L276.615,215.35L276.066,214.577L275.529,214.628L275.479,215.07L275.963,215.085L275.811,215.898L275.232,217.198L275.394,217.661L274.995,218.737L275.126,219.021L274.65,220.539L274.052,221.331L273.581,221.428L272.956,222.468L273.722,223.011L273.993,222.565L274.703,222.945L274.957,223.062L275.577,222.534L276.308,222.494L276.519,222.737L276.931,222.59L278.087,222.859L279.273,222.778L280.136,222.448L280.468,222.113L281.268,222.27L281.852,222.473L282.531,222.402L283.065,222.143L284.187,222.559L284.584,222.625L285.306,223.184L285.971,223.854L286.852,224.315L287.44,225.137L287.19,225.426L286.995,226.096L287.155,227.192L286.468,228.216L286.08,229.418L285.878,230.741L285.949,231.512L285.899,232.86L285.478,233.154L285.133,234.436L285.246,235.227L284.669,235.992L284.719,236.798L285.081,237.289L285.612,238.915L286.529,240.121L287.65,241.397L288.51,242.471L288.416,243.104L289.437,243.241L289.692,242.998L290.363,243.732L291.635,243.519L292.782,242.76L294.374,242.157L295.308,241.266L296.714,241.438L296.604,241.732L298.033,241.838L299.152,242.355L299.935,243.251L300.862,244.081L302.183,244.172L304.234,242.086L305.308,241.767L305.394,240.779L306.022,238.247L307.584,236.859L309.206,236.803L309.451,236.18L311.45,236.428L313.567,234.918L314.62,234.249L315.96,232.804L316.852,232.987L317.47,233.778L316.902,234.786L316.781,235.491L315.251,235.84L316.005,237.198L315.881,238.764L314.641,240.501L315.484,242.876L316.605,242.684L317.297,240.521L316.561,239.468L316.569,237.203L319.846,235.982L319.587,234.573L320.547,233.631L321.332,235.734L323.131,235.779L324.693,237.451L324.737,238.439L327.039,238.47L329.804,238.161L331.202,239.498L333.154,239.868L334.638,238.936L334.716,238.181L337.908,238.004L340.991,237.958L338.76,238.845L339.567,240.258L341.612,240.481L343.487,241.954L343.799,244.35L345.136,244.284L346.118,244.988L347.772,246.086L349.288,248.035L349.311,249.574L350.283,249.645L351.622,251.107L352.604,252.145L355.68,252.747L355.973,252.206L358.068,251.988L360.814,252.793L361.689,253.122L363.567,253.83L366.245,256.355L366.65,257.579L367.536,257.438L368.15,259.092L369.533,264.318L370.914,264.808L370.968,266.872L369.027,269.336L369.827,270.236L374.394,270.701L374.495,273.701L376.451,271.738L379.7,272.811L384.004,274.637L385.271,276.387L384.867,278.041L387.862,277.12L392.897,278.704L396.754,278.587L400.6,281.061L403.942,284.411L405.942,285.271L408.146,285.392L409.098,286.333L410.036,290.139L410.498,291.951L409.591,296.898L408.328,298.847L404.835,303.011L403.317,306.396L401.516,308.997L400.881,309.052L400.254,311.258L400.698,316.874L400.231,321.493L400.066,323.474L399.329,324.657L399.126,328.671L396.814,332.591L396.608,335.693L394.661,336.996L394.212,338.802L391.472,338.792L387.606,339.947L385.957,341.286L383.222,342.167L380.494,344.56L378.675,347.544L378.543,349.791L379.136,351.451L379.018,354.493L378.625,355.966L377.08,357.622L375.009,362.921L373.168,365.304L371.694,366.715L370.989,369.577L369.637,371.292L368.868,373.185L366.393,374.853L364.499,374.253L363.23,374.573L360.77,373.286L359.129,373.383L357.363,371.719L357.463,373.286L360.998,375.86L361.028,377.933L362.768,379.238L362.909,380.706L361.308,384.545L358.063,386.151L353.387,386.773L350.695,386.475L351.581,388.256L351.575,390.49L352.344,391.994L351.152,393.044L348.822,393.457L346.289,392.368L345.549,393.149L346.587,396.106L348.4,397.001L349.468,396.066L350.532,397.609L348.594,398.529L347.168,400.37L347.589,403.349L347.451,404.927L345.259,404.937L343.847,406.443L343.799,408.647L346.686,410.796L349.049,411.386L349.011,414.011L346.8,415.653L346.373,419.052L344.667,420.197L344.187,421.545L345.895,424.534L347.94,426.191L346.951,426.046L344.96,426.027L344.126,426.728L342.483,427.757L343.077,430.414L342.163,430.481L339.332,429.559L336.06,427.574L332.682,425.94L331.316,424.126L331.346,422.443L329.528,420.525L327.521,415.584L327.566,412.781L329.26,410.519L325.486,409.666L326.874,407.07L326.184,402.168L329.087,403.209L328.576,397.072L326.78,396.282L327.079,399.989L325.481,399.573L325.031,395.326L324.376,389.803L324.949,387.76L323.546,384.844L322.537,381.467L323.53,381.37L323.909,376.525L324.564,371.719L324.7,367.235L323.273,362.727L323.557,360.246L322.599,356.526L323.442,352.852L322.981,347.03L322.889,340.782L322.808,334.061L322.047,329.144L321.057,324.916L318.322,323.189L317.977,321.96L312.623,318.95L307.733,315.671L305.595,313.819L304.319,311.344L304.67,310.482L302.18,306.553L299.258,301.03L296.479,295.07L295.351,293.708L294.438,291.506L292.348,289.552L290.46,288.342L291.244,287.006L289.903,284.158L290.643,282.063L292.652,280.176L293.984,277.94L293.406,276.635L292.442,278.026L290.878,276.716L291.387,275.871L290.924,273.16L291.823,272.709L292.3,270.848L293.277,268.921L293.095,267.702L294.521,267.065L296.297,265.871L295.962,264.945L296.922,264.722L296.83,263.225L297.451,262.143L298.737,261.94L299.86,260.063L300.88,258.495L299.949,257.782L300.48,256.046L299.99,253.314L300.566,252.53L300.256,249.999L299.285,248.405L298.462,247.544L297.994,245.929L298.665,245.129L298.027,244.927L297.598,243.939L296.366,243.104L295.225,243.296L294.648,244.334L293.569,245.089L292.998,245.19L292.715,245.813L293.857,247.438L293.143,247.823L292.751,248.263L291.538,248.415L291.18,246.628L290.82,247.139L289.976,246.962L289.519,245.757L288.472,245.56L287.824,245.21L286.72,245.215L286.611,245.863L286.339,245.413L284.976,244.75L284.492,244.122L284.82,243.6L284.757,242.942L284.088,242.223L283.116,241.635L282.261,241.25L282.143,240.374L281.503,239.842L281.611,240.714L281.054,241.428L280.517,240.597L279.713,240.303L279.403,239.696L279.486,238.789L279.888,237.842L279.198,237.421L279.833,236.843L279.019,235.901L277.915,234.695L277.436,233.681L276.436,232.744L275.264,231.39L275.593,230.924L275.976,231.375L276.189,231.167L275.833,230.229L275.083,229.966L274.73,230.675L273.249,230.63L272.354,230.341L271.35,229.747L269.948,229.56L269.283,228.916L268.027,228.394L266.429,228.338L265.32,227.744L264.079,226.507L261.554,223.28L260.347,222.306L258.366,221.524L256.906,221.742L254.717,222.874L253.394,223.168L251.69,222.377L249.85,221.808L247.641,220.433L245.788,220.011L243.099,218.615L241.167,217.183L240.643,216.381L239.25,216.203L236.793,215.253L235.945,213.881L233.487,212.179L232.536,210.283L232.188,208.819L233.088,208.529L232.976,207.67L233.699,206.892L233.898,205.855L233.304,204.502L233.305,203.306L232.748,201.79L231.144,198.802L229.113,196.45L228.309,194.576L226.443,193.349L226.155,192.61L226.972,190.751L225.864,190.053L224.751,188.586L224.662,186.487L223.391,186.242L222.355,184.658L221.587,183.19L221.735,182.253L221.041,179.98L220.825,177.677L221.21,176.521L219.787,175.324L218.922,175.456L217.768,174.626L217.004,175.848L216.977,177.295L216.552,179.557L217.043,180.795L218.299,182.869L218.516,183.577L218.833,183.791L218.885,184.826L219.334,184.785L219.323,186.726L219.887,187.491L220.144,188.56L221.325,190.089L221.476,192.89L221.916,194.209L222.288,195.62L222.069,197.204L223.258,197.305L223.975,198.67L224.595,200.014L224.428,200.553L223.139,201.657L222.697,201.642L222.408,199.815L221.13,198.1L219.644,196.643L218.535,195.88L219.127,193.68L219.137,192.05L218.176,191.118L216.793,189.773L216.364,190.16L215.932,189.376L214.583,188.647L213.569,186.899L213.808,186.675L214.794,186.843L216.015,185.717L216.47,184.362L215.153,182.212L213.935,181.381L213.57,179.501L213.242,177.524L212.834,175.12L212.69,172.416L212.785,170.878L211.775,169.147L210.753,168.786L210.783,167.926L209.465,167.773L208.868,166.964L206.71,166.664L206.268,166.181L206.562,164.533L205.322,161.515L204.931,157.348L205.295,156.653L204.629,155.665L203.808,153.158L204.517,150.719L203.958,149.088L205.577,146.62L206.656,144.067L206.965,141.789L209.225,138.995L212.451,133.638L214.081,129.701L214.698,127.195L214.779,125.842L215.365,125.275L218.134,126.262L217.881,129.022L218.852,128.249L219.773,125.852L220.309,123.468L220,123.463L217.231,120.612L216.341,119.364L212.972,118.168L213.279,115.623L214.699,113.868L212.619,112.65L213.728,110.356L212.428,108.298L213.368,106.844L212.892,105.781L211.587,104.887L212.711,102.445L211.563,100.191L212.36,97.574L210.434,97.396L207.084,97.326L205.189,96.533L203.066,93.685L201.46,93.166L198.567,92.192L195.441,92.423L192.361,91.174L190.873,90.017L188.027,90.591L186.805,92.483L185.479,92.658L182.533,93.227L179.854,94.148L176.991,94.732L178.109,93.12L181.458,90.448L184.445,89.614L184.486,88.936L180.439,90.444L177.357,92.257L172.561,94.199L172.935,95.532L169.183,97.509L165.863,98.665L162.968,99.514L161.367,100.741L156.741,102.18L154.932,103.496L151.36,104.692L150.041,104.478L147.331,105.262L144.289,106.22L141.662,107.16L137.195,107.968L137.26,107.494L140.798,106.177L143.683,105.31L147.345,103.771L150.323,103.458L152.394,102.308L156.852,100.642L157.825,100.082L160.277,99.105L162.51,97.009L165.057,95.383L161.844,96.216L161.583,95.741L159.519,96.743L159.402,95.346L157.921,96.332L158.38,94.965L155.23,96.062L153.922,96.062L155.265,94.426L156.595,93.421L156.153,92.451L152.901,92.972L152.349,91.694L151.547,91.041L153.056,89.508L152.598,88.356L154.979,86.807L158.199,85.31L160.345,83.941L162.216,83.748L163.2,84.171L166.177,82.888L167.432,83.117L169.841,82.295L170.699,81.086L170.048,80.612L172.611,79.595L171.332,79.626L168.571,80.197L167.334,80.782L166.338,80.197L163.141,80.496L160.829,79.863L161.117,78.804L160.225,77.284L164.265,76.194L170.154,74.924L171.8,74.924L170.109,76.221L174.462,76.124L174.577,74.516L173.204,73.527L173.227,72.242L172.559,71.148L170.777,70.339L173.423,69.007L177.004,68.925L180.811,67.767L182.698,66.541L186.079,65.347L188.307,65.059L193.257,63.951L194.839,64.12L199.332,62.795L201.646,63.316L201.771,64.437L203.167,63.956L206.259,64.103L205.51,64.678L208.002,65.105L210.247,64.855L213.48,65.644L216.962,65.882L218.118,66.209L221.13,65.801L223.306,66.554L225.067,66.908L228.103,67.515L230.002,68.732L231.818,68.968L234.556,67.908L237.674,67.121L240.285,67.429L244.247,66.324L248.022,65.695L248.391,66.737L250.384,66.15L251.908,64.97L253,65.237L254.246,67.493L258.362,65.784L256.932,67.694L259.692,67.284L261.076,66.546L263.313,66.691L265.383,67.75L269.188,68.68L271.543,69.11L273.6,68.947L275.225,70.239L271.436,71.508L274.589,72.059L280.183,71.755L282.206,71.308L283.17,72.847L286.294,71.547L285.09,70.46L287.019,69.588L289.502,69.472L291.27,69.218L292.409,69.825L293.385,71.213L295.74,71.009L298.433,72.163L301.795,71.755L304.647,71.816L305.5,70.226L307.556,69.782L310.037,70.646L308.422,73.073L311.031,71.026L312.574,71.096L315.154,68.534L314.101,66.976L312.529,65.958L314.62,63.198L318.169,61.402L320.407,61.798L321.587,62.891L322.323,65.703L319.779,66.938ZM284.517,58.465L282.565,59.608L287.421,58.869L289.002,60.1L292.2,58.852L293.258,59.653L292.839,62.066L294.625,61.047L295.347,58.539L297.3,58.186L298.854,58.572L300.169,59.558L299.472,61.949L298.713,63.699L301.017,64.936L303.653,66.12L302.635,67.228L299.281,67.433L299.831,68.406L298.497,69.338L295.226,68.938L292.358,68.251L289.97,68.406L285.624,69.269L279.443,69.713L276.651,69.89L276.536,68.689L274.419,67.998L272.453,68.281L271.702,66.282L273.219,66.018L276.576,65.589L279.224,65.699L282.109,65.262L278.847,64.678L274.542,64.877L271.841,64.826L271.615,63.909L276.938,62.912L273.945,62.95L271.169,62.296L274.42,60.449L276.615,59.475L283.006,57.997ZM303.352,57.739L300.391,59.343L298.837,57.645L299.764,57.306L302.361,57.208ZM355.884,58.511L355.659,59.182L353.684,59.112L351.679,59.058L349.407,59.389L348.952,59.24L347.672,57.952L348.305,57.081L349.304,56.922L353.44,57.179ZM336.681,58.375L337.165,59.897L340.2,57.932L345.611,56.942L347.261,59.451L345.991,61.056L350.192,60.341L352.57,59.368L356.058,60.607L358.028,61.781L357.681,62.862L361.543,62.3L362.714,63.88L366.869,64.868L368.06,65.878L368.773,68.238L364.604,69.42L368.468,71.087L371.359,71.651L373.193,74.017L376.267,74.187L374.884,76.005L370.078,79.044L368.053,77.921L365.973,75.415L363.229,75.741L362.303,77.231L363.757,78.755L365.997,79.965L366.538,80.665L366.791,83.284L365.298,85.202L362.987,84.478L358.723,82.349L360.656,84.641L362.142,86.258L362.098,87.194L356.902,86.122L353.13,84.569L351.208,83.275L352.269,82.524L349.843,81.162L347.475,79.885L347.143,80.648L341.028,81.068L339.755,80.161L342.078,78.227L345.91,78.183L350.24,77.846L350.026,76.913L351.359,75.618L355.198,73.095L355.211,71.959L354.89,71.078L352.503,69.842L348.974,68.977L350.578,68.333L349.364,66.763L347.726,66.618L346.675,65.763L345.208,66.507L341.494,66.831L334.74,66.269L331.085,65.529L328.184,65.152L327.143,64.276L329.897,63.139L327.175,63.131L328.252,60.627L331.205,58.445L333.829,57.457L339.117,56.812ZM311.955,56.718L313.792,57.224L317.38,56.918L317.33,57.62L314.691,58.782L316.772,59.831L314.816,62.045L310.98,63.005L309.28,62.795L308.653,61.852L305.367,59.955L306.013,59.174L309.645,59.475L308.803,57.887ZM770.798,58.244L767.958,58.26L763.8,57.989L763.329,57.862L764.055,56.906L766.157,56.686L769.856,57.608ZM323.488,59.314L320.143,61.147L318.032,61.056L318.416,58.906L319.343,57.698L321.095,56.673L323.448,56.019L327.283,56.1L330.428,56.686L326.08,58.84ZM268.788,62.69L262.617,63.926L262.587,62.837L259.379,61.531L260.778,60.727L264.201,58.704L267.377,57.114L267,55.642L273.673,55.266L275.854,55.764L280.492,55.897L281.662,56.592L282.747,57.608L279.828,58.219L273.636,59.93L269.719,61.652ZM778.835,53.759L777.848,54.698L774.621,54.485L770.053,53.551L769.559,52.786L773.433,53.141ZM326.635,54.007L324.921,54.927L322.361,54.75L320.599,54.128L322.433,53.065L325.585,52.433L326.543,53.26ZM767.03,52.632L767.675,54.384L760.769,54.32L758.325,54.879L752.913,53.34L752.039,51.73L753.934,51.293L758.892,51.395ZM320.99,49.949L321.467,51.014L320.528,52.208L318.254,53.959L315.004,54.2L313.328,53.823L314.516,52.449L311.347,52.632L312.805,50.83L314.708,50.901L318.147,50.116L320.586,50.248ZM302.209,51.144L302.163,51.971L304.15,51.58L305.976,51.683L305.277,52.826L303.167,53.947L296.573,54.312L290.954,55.343L288.065,55.4L288.548,54.621L293.366,53.575L284.746,53.855L282.566,53.432L287.334,51.148L289.705,50.502L294.074,51.281L296.018,52.663L299.068,52.842L298.537,50.615L301.017,49.778L302.633,50.042ZM611.146,64.378L610.096,64.597L603.656,64.272L602.709,63.168L598.974,62.505L598.184,61.168L599.927,60.644L599.324,59.306L602.208,57.24L600.359,56.942L603.91,54.843L602.918,53.767L606.454,52.525L611.745,51.026L617.588,50.596L620.206,49.739L623.564,49.445L625.374,50.35L624.575,51.069L618.741,52.224L613.711,53.344L609.053,55.602L607.333,57.952L605.381,60.295L606.619,62.342ZM328.657,49.082L330.049,49.817L333.629,49.813L334.596,50.568L333.491,51.438L335.188,51.967L335.939,52.521L338.339,52.624L340.885,52.822L344.172,52.315L348.058,52.113L350.925,52.279L352.302,53.164L352.07,54.14L350.495,54.77L347.385,55.282L345.201,54.992L339.609,55.359L335.754,55.404L332.956,55.109L328.587,54.344L328.942,53.045L329.625,51.884L328.601,50.869L325.064,50.588L323.559,49.875L325.048,48.939ZM291.03,47.844L288.943,49.588L286.722,50.385L284.907,50.498L280.49,51.486L277.192,51.844L275.233,51.34L280.169,49.615L285.479,48.141L288.204,48.176ZM330.997,48.126L330.124,48.191L326.873,48.046L326.955,47.418L330.536,47.452L331.435,47.867ZM301.963,47.726L297.941,48.375L296.036,47.646L298.238,46.934L301.093,46.708L303.254,47.055ZM544.354,47.376L540.541,48.294L537.261,47.772L538.382,47.195L537.164,46.482L540.761,46.037L541.653,46.87ZM305.006,45.716L302.374,46.145L299.42,46.141L299.795,45.828L302.341,45.171L303.182,45.271ZM328.487,46.923L325.417,47.384L324.439,46.862L324.457,46.033L325.198,45.123L327.409,45.212L328.304,45.356L329.712,46.119ZM321.488,46.325L321.3,47.255L318.614,47.006L316.378,46.284L312.483,46.205L314.869,45.549L313.276,45.024L314.03,44.191L317.183,44.487L321.156,45.278ZM687.5,46.366L678.252,47.225L678.664,44.337L679.867,44.096L681.332,44.235L687.109,45.471ZM532.01,43.336L538.143,44.939L533.85,45.802L533.146,47.437L531.645,47.859L531.082,49.743L528.905,49.832L524.823,48.44L526.351,47.638L523.581,46.994L519.891,45.131L518.332,43.44L523.009,42.68L524.073,43.422L526.57,43.394L527.114,42.67L529.666,42.598ZM544.223,41.852L547.854,42.584L545.578,43.726L540.538,43.98L535.273,43.625L534.833,43.038L532.317,42.998L530.219,42.035L535.461,41.457L538.098,41.954L539.697,41.335ZM588.701,41.562L586.525,41.835L585.047,41.993L584.987,42.336L583.134,42.684L580.989,42.187L581.638,41.537L577.748,41.474L580.932,41.102L583.543,41.075L584.206,41.631L584.923,41.137L586.36,40.802L589.186,41.248ZM677.1,45.105L673.496,45.375L667.963,44.748L664.235,43.922L661.392,42.403L658.597,41.99L661.613,40.585L664.816,40.132L669.329,41.151L675.548,43.171ZM347.291,43.426L348.787,44.115L345.799,44.759L341.086,46.411L337.788,46.569L334.344,46.284L333.244,45.39L334.014,44.597L335.959,44.024L332.724,44.038L331.494,43.329L331.378,42.371L333.575,41.45L335.457,40.826L337.387,40.681L337.149,40.22L341.26,40.118L342.297,41.199L344.762,41.642L347.219,42.035ZM385.56,36.575L389.883,36.719L393.262,36.952L395.884,37.458L395.385,37.959L390.549,38.794L386.099,39.188L384.182,39.632L387.918,39.622L382.885,40.84L379.614,41.418L375.308,43.127L371.421,43.48L369.968,43.915L364.455,44.147L366.676,44.418L365.159,44.803L365.817,45.884L363.569,46.64L360.345,47.27L358.85,48.153L355.844,48.828L355.727,49.344L358.888,49.256L358.54,49.813L352.713,51.199L348.395,50.561L342.774,50.916L340.264,50.639L336.913,50.518L337.556,49.414L341.315,48.901L341.748,47.27L342.973,47.115L346.992,48.084L345.697,46.648L343.16,46.224L345.33,45.371L348.916,44.85L350.071,44.096L348.34,43.26L348.612,42.177L353.285,42.268L354.458,42.495L357.868,41.733L354.186,41.495L347.988,41.628L345.634,40.929L345.064,40.111L343.712,39.528L344.112,38.857L347.072,38.49L349.124,38.428L352.813,38.116L356.128,37.413L358.1,37.508L359.315,38.039L361.759,37.027L364.322,36.732L367.556,36.532L372.744,36.458L373.415,36.651L378.575,36.345L382.059,36.461ZM455.032,35.835L464.962,37.275L461.632,37.997L455.138,38.081L445.946,38.269L446.659,38.611L452.754,38.398L457.644,39.068L461.134,38.473L462.347,39.171L460.144,40.329L464.709,39.585L473.165,38.824L478.207,39.201L479.037,40.05L471.765,41.495L470.695,41.972L465.055,42.332L469.071,42.431L466.726,43.98L465.026,45.386L464.619,47.859L466.526,49.341L463.679,49.433L460.557,50.159L463.705,51.383L463.805,53.372L461.792,53.591L463.866,55.634L459.693,55.804L461.698,56.783L460.945,57.633L458.233,58.006L455.6,58.014L457.677,59.661L457.519,60.752L453.941,59.74L452.841,60.395L455.3,61.01L457.549,62.518L457.954,64.521L454.427,65.004L453.106,64.04L450.985,62.61L451.329,64.297L448.838,65.614L453.935,65.72L456.59,65.856L450.988,68.054L445.275,70.058L439.315,70.94L437.134,70.948L434.86,71.937L431.469,74.66L426.721,76.481L425.302,76.586L422.453,77.227L419.391,77.837L417.226,79.457L416.711,81.309L415.216,83.05L411.288,85.179L411.574,87.276L410.056,89.504L408.297,92.155L405.278,92.321L402.766,90.104L398.563,90.09L396.968,88.607L396.369,85.981L393.846,82.663L393.376,80.938L393.895,78.577L391.942,76.163L393.348,74.253L392.34,73.344L395.405,70.343L398.716,69.394L399.876,68.333L400.998,66.362L398.439,67.254L397.237,67.63L395.348,67.99L393.265,67.164L393.802,65.457L395.087,64.129L396.895,64.091L400.585,64.754L397.871,63.173L396.486,62.325L394.439,62.673L393.092,62.057L396.173,59.769L395.404,58.861L394.64,57.183L393.539,54.646L391.622,53.723L392.122,52.739L387.895,51.372L384.1,51.203L379.156,51.297L374.596,51.47L372.911,50.732L370.657,49.286L375.856,48.57L379.561,48.451L372.23,47.863L368.797,46.949L369.65,46.089L377.114,45.031L384.299,43.991L385.506,43.217L381.33,42.456L383.472,41.628L390.531,40.203L393.191,39.989L393.17,39.101L397.607,38.588L403.058,38.285L408.273,38.269L409.705,38.87L414.925,37.814L418.496,38.529L420.789,38.679L423.959,39.314L420.534,38.269L421.282,37.458L427.62,36.36L433.423,36.443L435.94,35.784L441.898,35.614Z" fill="#dad9d2"/><g fill="none" stroke="#9c9d94" stroke-width="1" stroke-dasharray="3 5"><path d="M680.5709502576316,140.50343707494665 Q471.1301746977002,70.50343707494665 261.6893991377689,150.02448856216017"/><circle cx="261.6893991377689" cy="150.02448856216017" r="3" fill="#81817a"/><path d="M680.5709502576316,140.50343707494665 Q601.6035180552462,50.56887168719618 522.636085852861,120.56887168719618"/><circle cx="522.636085852861" cy="120.56887168719618" r="3" fill="#81817a"/><path d="M680.5709502576316,140.50343707494665 Q646.7016451796424,70.50343707494665 612.832340101653,195.09453653596046"/><circle cx="612.832340101653" cy="195.09453653596046" r="3" fill="#81817a"/><path d="M680.5709502576316,140.50343707494665 Q667.7364204090409,70.50343707494665 654.9018905604503,150.02448856216017"/><circle cx="654.9018905604503" cy="150.02448856216017" r="3" fill="#81817a"/></g><circle cx="680.5709502576316" cy="140.50343707494665" r="13" fill="#2F5BFF" opacity=".14"/><circle cx="680.5709502576316" cy="140.50343707494665" r="5" fill="#2F5BFF"/><text x="694.5709502576316" y="124.50343707494665" font-family="Arial,sans-serif" font-size="13" fill="#111">ALMATY</text></svg>